<?xml version="1.0" standalone="no"?>
<!DOCTYPE svg PUBLIC "-//W3C//DTD SVG 20010904//EN"
 "http://www.w3.org/TR/2001/REC-SVG-20010904/DTD/svg10.dtd">
<svg version="1.0" xmlns="http://www.w3.org/2000/svg"
 width="260.000000pt" height="260.000000pt" viewBox="0 0 260.000000 260.000000"
 preserveAspectRatio="xMidYMid meet">
<metadata>
Created by potrace 1.11, written by Peter Selinger 2001-2013
</metadata>
<g transform="translate(0.000000,260.000000) scale(0.100000,-0.100000)"
fill="#000000" stroke="none">
<path d="M4 1303 l1 -1298 1298 -3 1297 -2 0 1300 0 1300 -1299 0 -1299 0 2
-1297z m1277 233 c92 -28 169 -81 214 -149 21 -33 38 -29 75 18 77 97 193 146
355 150 205 5 341 -67 413 -218 50 -104 52 -132 52 -647 l0 -480 -107 -1
c-161 -1 -216 -1 -235 0 -16 1 -18 32 -21 444 -1 243 -5 452 -9 463 -30 98
-88 146 -180 149 -134 5 -222 -73 -259 -231 -7 -32 -12 -187 -13 -439 l-1
-390 -180 0 -180 0 -1 401 c-1 220 -4 425 -8 454 -18 135 -85 204 -194 202
-107 -2 -176 -45 -217 -137 -44 -99 -49 -157 -49 -552 l0 -372 -180 2 -180 2
0 665 0 665 137 0 138 0 19 -66 c11 -36 20 -71 20 -76 0 -6 6 -16 14 -22 10
-9 18 -4 36 21 52 76 168 144 265 155 22 3 42 7 44 9 8 8 190 -8 232 -20z"/>
</g>
</svg>
