<?xml version="1.0" ?><svg height="24px" version="1.1" viewBox="0 0 24 24" width="24px" xmlns="http://www.w3.org/2000/svg" xmlns:sketch="http://www.bohemiancoding.com/sketch/ns" xmlns:xlink="http://www.w3.org/1999/xlink"><title/><desc/><defs/><g fill="none" fill-rule="evenodd" id="miu" stroke="none" stroke-width="1"><g id="Artboard-1" transform="translate(-359.000000, -299.000000)"><g id="slice" transform="translate(215.000000, 119.000000)"/><path d="M360.140488,305 C360.062898,305 360,305.057936 360,305.128791 L360,320.871209 C360,320.942338 360.06311,321 360.140488,321 L381.859512,321 C381.937102,321 382,320.942064 382,320.871209 L382,305.128791 C382,305.057662 381.93689,305 381.859512,305 L360.140488,305 Z M361,306 L361,320 L381,320 L381,306 L361,306 Z M368.311468,308.965573 L371.568023,314.589603 C371.608096,314.658809 371.694647,314.676887 371.758887,314.631708 L374.521394,312.688868 C374.650699,312.59793 374.822887,312.629655 374.909233,312.764808 L379.929855,318.623341 C380.014748,318.75622 379.953368,318.863939 379.803474,318.863939 L362.147227,318.863939 C361.992123,318.863939 361.924733,318.751431 361.997976,318.6102 L368.035029,308.969159 C368.107704,308.829023 368.232913,308.829911 368.311468,308.965573 Z M377.5,310 C378.328427,310 379,309.328427 379,308.5 C379,307.671573 378.328427,307 377.5,307 C376.671573,307 376,307.671573 376,308.5 C376,309.328427 376.671573,310 377.5,310 Z M362,301 L362,302 L380,302 L380,301 L362,301 Z M361,303 L361,304 L381,304 L381,303 L361,303 Z" fill="#000000" id="editor-images-pictures-photos-collection-outline-stroke"/></g></g></svg>