<svg id="Layer_1" data-name="Layer 1" xmlns="http://www.w3.org/2000/svg" viewBox="0 0 122.5 30.93"><defs><style>.cls-1{fill:#444;}</style></defs><title>logo_dark</title><path class="cls-1" d="M38.29,24.76L37.56,22.9h-0.1a5.54,5.54,0,0,1-2,1.65,6.3,6.3,0,0,1-2.6.45,4.22,4.22,0,0,1-3.12-1.13,4.34,4.34,0,0,1-1.14-3.22,3.63,3.63,0,0,1,1.53-3.23,8.87,8.87,0,0,1,4.61-1.15l2.38-.07V15.6A1.87,1.87,0,0,0,35,13.52a9.74,9.74,0,0,0-3.87,1L29.93,12a11.17,11.17,0,0,1,5.26-1.24A6.55,6.55,0,0,1,39.43,12a4.45,4.45,0,0,1,1.47,3.66v9.15H38.29ZM37.18,18.4H35.73A4.65,4.65,0,0,0,33.3,19a1.85,1.85,0,0,0-.8,1.65q0,1.59,1.82,1.59a2.88,2.88,0,0,0,2.08-.75,2.63,2.63,0,0,0,.78-2V18.4Z" transform="translate(-0.01)"/><path class="cls-1" d="M56.72,11v1.9l-2.15.55a3.75,3.75,0,0,1,.59,2.06A4.17,4.17,0,0,1,53.62,19a6.68,6.68,0,0,1-4.28,1.24H48.66l-0.55-.06a1.25,1.25,0,0,0-.58,1q0,0.81,2.06.81h2.33a5.33,5.33,0,0,1,3.45,1,3.47,3.47,0,0,1,1.19,2.85,4.23,4.23,0,0,1-2,3.74,10.46,10.46,0,0,1-5.77,1.33,8,8,0,0,1-4.39-1A3.18,3.18,0,0,1,42.87,27a2.94,2.94,0,0,1,.77-2.08,4.39,4.39,0,0,1,2.27-1.19,2.51,2.51,0,0,1-1-.8,2,2,0,0,1,0-2.5,5.27,5.27,0,0,1,1.31-1,3.69,3.69,0,0,1-1.71-1.5,4.56,4.56,0,0,1-.63-2.43A4.29,4.29,0,0,1,45.37,12a6.32,6.32,0,0,1,4.18-1.23,10.76,10.76,0,0,1,1.37.1q0.79,0.1,1,.15h4.79v0ZM46.12,26.71a1.36,1.36,0,0,0,.74,1.22,4.09,4.09,0,0,0,2.08.44,7.38,7.38,0,0,0,3.16-.55,1.69,1.69,0,0,0,1.14-1.51,1.07,1.07,0,0,0-.68-1.07,5.54,5.54,0,0,0-2.09-.29H48.54a2.94,2.94,0,0,0-1.73.49A1.5,1.5,0,0,0,46.12,26.71Zm1.36-11.18A2.8,2.8,0,0,0,48,17.29a1.85,1.85,0,0,0,1.55.65,1.81,1.81,0,0,0,1.55-.65,2.87,2.87,0,0,0,.49-1.77q0-2.48-2-2.48t-2.12,2.48h0Z" transform="translate(-0.01)"/><path class="cls-1" d="M67.71,24.76L67,22.9h-0.1A5.54,5.54,0,0,1,65,24.55a6.31,6.31,0,0,1-2.61.46,4.22,4.22,0,0,1-3.12-1.13,4.34,4.34,0,0,1-1.14-3.22,3.63,3.63,0,0,1,1.53-3.23,8.87,8.87,0,0,1,4.61-1.15l2.38-.07v-0.6a1.87,1.87,0,0,0-2.14-2.09,9.74,9.74,0,0,0-3.87,1L59.35,12a11.16,11.16,0,0,1,5.26-1.24A6.56,6.56,0,0,1,68.85,12a4.45,4.45,0,0,1,1.47,3.66v9.15H67.71ZM66.6,18.4H65.15a4.65,4.65,0,0,0-2.43.59,1.85,1.85,0,0,0-.8,1.65q0,1.59,1.82,1.59a2.88,2.88,0,0,0,2.08-.75,2.63,2.63,0,0,0,.78-2V18.4Z" transform="translate(-0.01)"/><path class="cls-1" d="M83.74,24.76H72.89V22.55l6.37-8.66h-6V11H83.52v2.43L77.33,21.9h6.41v2.86Z" transform="translate(-0.01)"/><path class="cls-1" d="M86.3,7.47q0-1.83,2-1.83t2,1.83a1.78,1.78,0,0,1-.51,1.36,2.14,2.14,0,0,1-1.53.49A1.69,1.69,0,0,1,86.3,7.47Zm3.91,17.29H86.46V11h3.75V24.76Z" transform="translate(-0.01)"/><path class="cls-1" d="M106.82,24.76h-3.75v-8a3.85,3.85,0,0,0-.53-2.23,1.92,1.92,0,0,0-1.68-.74,2.53,2.53,0,0,0-2.27,1.05,6.52,6.52,0,0,0-.7,3.48v6.46H94.14V11H97l0.5,1.76h0.2a4,4,0,0,1,1.73-1.51,5.88,5.88,0,0,1,2.5-.51,4.8,4.8,0,0,1,3.64,1.3,5.2,5.2,0,0,1,1.24,3.74v9Z" transform="translate(-0.01)"/><path class="cls-1" d="M116.9,25a7.09,7.09,0,0,1-5.19-1.83A6.93,6.93,0,0,1,109.84,18a7.62,7.62,0,0,1,1.73-5.34,6.15,6.15,0,0,1,4.77-1.89,6,6,0,0,1,4.53,1.66A6.27,6.27,0,0,1,122.5,17v1.82h-8.86a3.61,3.61,0,0,0,.95,2.5,3.33,3.33,0,0,0,2.48.9,10.31,10.31,0,0,0,2.35-.26,11.75,11.75,0,0,0,2.31-.82V24a8.82,8.82,0,0,1-2.1.73A13.22,13.22,0,0,1,116.9,25Zm-0.53-11.58a2.38,2.38,0,0,0-1.87.76,3.49,3.49,0,0,0-.77,2.14H119a3.13,3.13,0,0,0-.73-2.14,2.45,2.45,0,0,0-1.91-.75h0Z" transform="translate(-0.01)"/><path class="cls-1" d="M0,0V26.88H26.87V0H0ZM24.72,24.76H21v-8a4,4,0,0,0-.5-2.23,1.75,1.75,0,0,0-1.57-.74,2.34,2.34,0,0,0-2.06,1,5.58,5.58,0,0,0-.68,3.12V24.8H12.4v-8a4,4,0,0,0-.5-2.23,1.75,1.75,0,0,0-1.57-.74,2.27,2.27,0,0,0-2.09,1.06,6.93,6.93,0,0,0-.65,3.48v6.46H3.85V11H6.71l0.5,1.76H7.43A3.81,3.81,0,0,1,9,11.3a5.19,5.19,0,0,1,2.4-.53q3.08,0,4.18,2h0.33a3.71,3.71,0,0,1,1.63-1.49A5.43,5.43,0,0,1,20,10.77,4.79,4.79,0,0,1,23.52,12a5.26,5.26,0,0,1,1.2,3.84v8.92Z" transform="translate(-0.01)"/></svg>