<svg id="Layer_1" data-name="Layer 1" xmlns="http://www.w3.org/2000/svg" viewBox="0 0 28.67 24.45"><defs><style>.cls-1{fill:#fff;}</style></defs><title>quote</title><path class="cls-1" d="M0.16,20.56a15.44,15.44,0,0,0,5-4.18,9.8,9.8,0,0,0,1.63-5.85,2.42,2.42,0,0,1-.72.08A5.44,5.44,0,0,1,2.43,9.29,4.49,4.49,0,0,1,.88,5.67a5.52,5.52,0,0,1,1.43-4A5,5,0,0,1,6.06.17a5.37,5.37,0,0,1,4.66,2.31A11.21,11.21,0,0,1,12.35,9q0,10.44-10,15.61Zm16.49,0a15.42,15.42,0,0,0,5-4.18,9.79,9.79,0,0,0,1.63-5.85,2.41,2.41,0,0,1-.72.08,5.44,5.44,0,0,1-3.63-1.31,4.5,4.5,0,0,1-1.55-3.62,5.52,5.52,0,0,1,1.44-4A5,5,0,0,1,22.55.17,5.36,5.36,0,0,1,27.2,2.48,11.21,11.21,0,0,1,28.84,9q0,10.44-10,15.61Z" transform="translate(-0.16 -0.17)"/></svg>